<svg xmlns="http://www.w3.org/2000/svg" viewBox="0 0 96 96" width="96" height="96">
  <defs>
    <linearGradient id="bg" x1="0" y1="0" x2="1" y2="1">
      <stop offset="0%" stop-color="#0D9488"/>
      <stop offset="100%" stop-color="#115E59"/>
    </linearGradient>
    <radialGradient id="glow" cx="0.3" cy="0.3" r="0.7">
      <stop offset="0%" stop-color="#F59E0B" stop-opacity="0.6"/>
      <stop offset="100%" stop-color="#F59E0B" stop-opacity="0"/>
    </radialGradient>
  </defs>
  <circle cx="48" cy="48" r="46" fill="url(#bg)"/>
  <circle cx="32" cy="32" r="36" fill="url(#glow)"/>
  <!-- friendly face -->
  <g fill="#fff">
    <!-- hair / cap -->
    <path d="M22 40 Q48 14 74 40 Q74 36 70 32 Q60 18 48 18 Q36 18 26 32 Q22 36 22 40 Z" opacity="0.95"/>
    <!-- face -->
    <ellipse cx="48" cy="54" rx="22" ry="22" fill="#FCD34D"/>
    <!-- eyes -->
    <circle cx="40" cy="52" r="3" fill="#0F172A"/>
    <circle cx="56" cy="52" r="3" fill="#0F172A"/>
    <!-- smile -->
    <path d="M40 62 Q48 70 56 62" fill="none" stroke="#0F172A" stroke-width="3" stroke-linecap="round"/>
    <!-- sparkle accent -->
    <g fill="#F59E0B">
      <circle cx="74" cy="22" r="3"/>
      <path d="M74 14 v4 M74 24 v4 M66 22 h4 M78 22 h4" stroke="#F59E0B" stroke-width="2" stroke-linecap="round"/>
    </g>
  </g>
</svg>
