<?xml version="1.0" encoding="UTF-8"?>
<svg xmlns="http://www.w3.org/2000/svg" viewBox="0 0 200 200" width="200" height="200" role="img" aria-label="Lumi mascot">
  <defs>
    <radialGradient id="bg" cx="0.45" cy="0.4" r="0.7">
      <stop offset="0%" stop-color="#14B8A6"/><stop offset="60%" stop-color="#0D9488"/><stop offset="100%" stop-color="#0F766E"/>
    </radialGradient>
    <radialGradient id="cheek" cx="0.5" cy="0.5" r="0.5">
      <stop offset="0%" stop-color="#FB7185" stop-opacity="0.55"/><stop offset="100%" stop-color="#FB7185" stop-opacity="0"/>
    </radialGradient>
    <linearGradient id="cap" x1="0" y1="0" x2="0" y2="1">
      <stop offset="0%" stop-color="#FAFAFA"/><stop offset="100%" stop-color="#E2E8F0"/>
    </linearGradient>
    <linearGradient id="duster" x1="0" y1="0" x2="0" y2="1">
      <stop offset="0%" stop-color="#FCD34D"/><stop offset="100%" stop-color="#F59E0B"/>
    </linearGradient>
  </defs>
  <circle cx="100" cy="100" r="96" fill="url(#bg)"/>
  <ellipse cx="78" cy="62" rx="52" ry="28" fill="#fff" opacity="0.07"/>
  <g fill="#FCD34D">
    <circle cx="160" cy="40" r="2.5"><animate attributeName="r" values="2.5;4;2.5" dur="2.4s" repeatCount="indefinite"/><animate attributeName="opacity" values="0.4;1;0.4" dur="2.4s" repeatCount="indefinite"/></circle>
    <circle cx="36" cy="56" r="2"><animate attributeName="r" values="2;3.5;2" dur="2.8s" begin="0.3s" repeatCount="indefinite"/><animate attributeName="opacity" values="0.3;1;0.3" dur="2.8s" begin="0.3s" repeatCount="indefinite"/></circle>
    <circle cx="170" cy="130" r="2.8"><animate attributeName="r" values="2.8;4.5;2.8" dur="3.2s" begin="0.6s" repeatCount="indefinite"/><animate attributeName="opacity" values="0.4;1;0.4" dur="3.2s" begin="0.6s" repeatCount="indefinite"/></circle>
    <circle cx="28" cy="140" r="1.8"><animate attributeName="r" values="1.8;3;1.8" dur="2.6s" begin="0.9s" repeatCount="indefinite"/><animate attributeName="opacity" values="0.3;1;0.3" dur="2.6s" begin="0.9s" repeatCount="indefinite"/></circle>
  </g>
  <g>
    <animateTransform attributeName="transform" type="translate" values="0 0; 0 -3; 0 0" dur="3.2s" repeatCount="indefinite"/>
    <g transform="translate(46 122)">
      <animateTransform attributeName="transform" type="rotate" values="-15 0 0; 12 0 0; -15 0 0" dur="2.2s" repeatCount="indefinite" additive="sum"/>
      <rect x="-2" y="0" width="4" height="34" fill="#92400E" rx="2"/>
      <ellipse cx="0" cy="0" rx="14" ry="10" fill="url(#duster)"/>
      <path d="M-12 -2 L-18 -10 M-6 -8 L-8 -16 M0 -10 L0 -18 M6 -8 L8 -16 M12 -2 L18 -10" stroke="#F59E0B" stroke-width="2" stroke-linecap="round"/>
    </g>
    <g transform="translate(154 124)">
      <animateTransform attributeName="transform" type="rotate" values="0 0 0; -15 0 0; 0 0 0" dur="2s" repeatCount="indefinite" additive="sum"/>
      <rect x="-3" y="0" width="6" height="22" rx="3" fill="#FCD34D"/>
      <circle cx="0" cy="24" r="6" fill="#FCD34D"/>
    </g>
    <path d="M55 178 Q55 130 100 130 Q145 130 145 178 Z" fill="#FFFFFF"/>
    <path d="M70 178 L72 170 L78 178 L82 170 L88 178 L92 170 L98 178 L102 170 L108 178 L112 170 L118 178 L122 170 L128 178" stroke="#E2E8F0" stroke-width="1.6" fill="none"/>
    <circle cx="100" cy="155" r="8" fill="none" stroke="#0D9488" stroke-width="1.5" opacity="0.4"/>
    <circle cx="100" cy="92" r="38" fill="#FCD34D"/>
    <ellipse cx="78" cy="105" rx="9" ry="6" fill="url(#cheek)"/>
    <ellipse cx="122" cy="105" rx="9" ry="6" fill="url(#cheek)"/>
    <ellipse cx="86" cy="92" rx="4" ry="5" fill="#0F172A">
      <animate attributeName="ry" values="5;5;0.6;5;5;5" dur="5s" keyTimes="0;0.45;0.5;0.55;0.6;1" repeatCount="indefinite"/>
    </ellipse>
    <ellipse cx="114" cy="92" rx="4" ry="5" fill="#0F172A">
      <animate attributeName="ry" values="5;5;0.6;5;5;5" dur="5s" keyTimes="0;0.45;0.5;0.55;0.6;1" repeatCount="indefinite"/>
    </ellipse>
    <circle cx="87.5" cy="90" r="1.4" fill="#fff"/>
    <circle cx="115.5" cy="90" r="1.4" fill="#fff"/>
    <path d="M84 108 Q100 122 116 108" stroke="#0F172A" stroke-width="3" stroke-linecap="round" fill="none"/>
    <path d="M97 113 L103 113" stroke="#fff" stroke-width="2" stroke-linecap="round" opacity="0.85"/>
    <path d="M62 80 Q62 56 100 56 Q138 56 138 80 Q138 70 130 64 Q115 50 100 50 Q85 50 70 64 Q62 70 62 80 Z" fill="url(#cap)"/>
    <path d="M62 80 Q100 70 138 80" stroke="#CBD5E1" stroke-width="1.4" fill="none" opacity="0.7"/>
    <g transform="translate(140 70)">
      <ellipse cx="0" cy="0" rx="6" ry="4" fill="#FAFAFA"/>
      <path d="M-2 -3 L4 -8 M-2 3 L4 8" stroke="#CBD5E1" stroke-width="1.4" stroke-linecap="round" fill="none"/>
    </g>
    <g transform="translate(76 64)">
      <path d="M0 -4 L1 -1 L4 0 L1 1 L0 4 L-1 1 L-4 0 L-1 -1 Z" fill="#F59E0B">
        <animateTransform attributeName="transform" type="rotate" values="0;360" dur="6s" repeatCount="indefinite"/>
      </path>
    </g>
  </g>
</svg>
